<?xml version="1.0" encoding="UTF-8"?>
<svg xmlns="http://www.w3.org/2000/svg" width="1024" height="1024" viewBox="0 0 1024 1024">
  <rect width="1024" height="1024" fill="#e2eaf0"/>
  <rect x="0" y="640" width="1024" height="384" fill="#f4f7fa"/>
  <line x1="0" y1="640" x2="1024" y2="640" stroke="#5a82aa" stroke-width="2"/>
  <line x1="0" y1="896" x2="1024" y2="896" stroke="#8c4632" stroke-width="3"/>
  <rect x="224" y="256" width="576" height="640" fill="none" stroke="#111" stroke-width="2" stroke-dasharray="6 4"/>
  <rect x="418" y="428" width="188" height="200" rx="80" fill="#f0c45a55" stroke="#c9a227"/>
  <rect x="400" y="176" width="224" height="160" fill="#a85cc450" stroke="#7a3d96"/>
  <rect x="832" y="40" width="168" height="128" fill="none" stroke="#c85050" stroke-width="2"/>
  <text x="56" y="48" font-size="22" font-family="Segoe UI, Arial">Small Tent / Pup</text>
  <text x="56" y="72" font-size="13" font-family="Segoe UI, Arial">bbox (224,256) 576×640  fill #2F6B4F</text>
  <g><circle cx="512" cy="856" r="5" fill="#1a1a1a"/><text x="520" y="848" font-size="12" font-family="Segoe UI, Arial">center X (512,856)</text></g><g><circle cx="512" cy="512" r="5" fill="#1a1a1a"/><text x="520" y="504" font-size="12" font-family="Segoe UI, Arial">face (512,512)</text></g><g><circle cx="456" cy="488" r="5" fill="#1a1a1a"/><text x="464" y="480" font-size="12" font-family="Segoe UI, Arial">eye L (456,488)</text></g><g><circle cx="568" cy="488" r="5" fill="#1a1a1a"/><text x="576" y="480" font-size="12" font-family="Segoe UI, Arial">eye R (568,488)</text></g><g><circle cx="512" cy="552" r="5" fill="#1a1a1a"/><text x="520" y="544" font-size="12" font-family="Segoe UI, Arial">mouth (512,552)</text></g><g><circle cx="240" cy="560" r="5" fill="#1a1a1a"/><text x="248" y="552" font-size="12" font-family="Segoe UI, Arial">arm L (240,560)</text></g><g><circle cx="784" cy="560" r="5" fill="#1a1a1a"/><text x="792" y="552" font-size="12" font-family="Segoe UI, Arial">arm R (784,560)</text></g><g><circle cx="184" cy="640" r="5" fill="#1a1a1a"/><text x="192" y="632" font-size="12" font-family="Segoe UI, Arial">hand L (184,640)</text></g><g><circle cx="840" cy="640" r="5" fill="#1a1a1a"/><text x="848" y="632" font-size="12" font-family="Segoe UI, Arial">hand R (840,640)</text></g><g><circle cx="400" cy="896" r="5" fill="#1a1a1a"/><text x="408" y="888" font-size="12" font-family="Segoe UI, Arial">foot L (400,896)</text></g><g><circle cx="624" cy="896" r="5" fill="#1a1a1a"/><text x="632" y="888" font-size="12" font-family="Segoe UI, Arial">foot R (624,896)</text></g><g><circle cx="512" cy="256" r="5" fill="#1a1a1a"/><text x="520" y="248" font-size="12" font-family="Segoe UI, Arial">peak (512,256)</text></g>
</svg>
